<?xml version="1.0" encoding="UTF-8" standalone="no"?>
<!-- Created with Inkscape (http://www.inkscape.org/) -->

<svg
   width="67.601776"
   height="68.249657"
   viewBox="0 0 67.601776 68.249657"
   version="1.1"
   id="svg1"
   xmlns="http://www.w3.org/2000/svg"
   xmlns:svg="http://www.w3.org/2000/svg">
  <defs
     id="defs1" />
  <g
     id="layer1"
     transform="translate(-24.317804,-26.671244)">
    <path
       id="arrow"
       style="fill:none;fill-opacity:1;stroke:#000000;stroke-opacity:1"
       transform="matrix(0.81546303,0,0,0.93485385,16.654763,39.404457)"
       d="m 51.611689,-13.120538 c -0.577299,-2.12e-4 -1.302459,2.975415 -2.074166,7.2621649 1.389922,0.1541951 2.782172,0.2984713 4.174679,0.4345599 -0.774131,-4.5109384 -1.508869,-7.6965068 -2.100513,-7.6967248 z m -2.335234,8.8353553 c -0.361908,2.1207884 -0.73111,4.53793137 -1.099356,7.0281708 0.24369,0.059104 0.486522,0.1196513 0.730509,0.1775846 2.131131,0.5060266 4.144492,0.9174839 6.263217,1.3559105 -0.399416,-2.8569385 -0.801635,-5.6404371 -1.197556,-8.0748752 -1.56741,-0.1519396 -3.132536,-0.3128447 -4.696814,-0.4867907 z m -1.334077,8.6243428 c -0.38579,2.6596516 -0.713544,5.0855941 -1.080195,7.7489549 0.111644,0.02812 0.223784,0.05532 0.335315,0.08357 6.613854,1.675257 0.404316,0.08638 7.036839,1.792559 0.775653,0.201718 1.549069,0.406468 2.323258,0.612145 C 56.173018,11.656174 55.821955,8.9701439 55.407941,5.9562243 53.32425,5.523051 50.43941,4.941025 48.385474,4.4415324 48.279477,4.4157553 48.084911,4.3709901 47.942378,4.3391601 Z m -1.300545,9.3472159 c -0.557114,4.058256 -1.083646,7.911458 -1.530477,10.863998 0.09722,0.03775 0.189838,0.07488 0.287414,0.112819 4.435809,1.687894 8.887011,3.345081 13.355142,4.9661 -0.450029,-1.974838 -1.170321,-7.296327 -1.966386,-13.331379 -1.021525,-0.27348 -2.044158,-0.544282 -3.068139,-0.810621 -6.654645,-1.711918 -0.378354,-0.104334 -7.034442,-1.79047 -0.01429,-0.0036 -0.02882,-0.0068 -0.04311,-0.01045 z m -1.801124,12.497776 c -0.321278,1.98196 -0.600784,3.499641 -0.776017,3.796132 -0.173848,0.29415 -1.288869,1.253308 -2.886109,2.557218 0.904644,2.004166 1.397429,4.160716 1.889743,6.263512 0.522669,2.490455 0.781465,5.008799 0.929303,7.533765 3.978418,-1.587468 7.08533,-2.776824 7.640406,-2.768231 0.629634,0.0097 4.400891,1.472993 9.139747,3.36575 0.24041,-0.879978 0.492698,-1.757622 0.766435,-2.630341 0.981564,-3.051378 2.058019,-6.076345 3.20945,-9.081884 -1.57639,-1.225748 -2.968564,-2.321697 -3.95912,-3.138024 -5.343062,-1.913378 -10.659375,-3.884078 -15.953838,-5.897897 z m -5.099193,7.508694 c -1.680209,1.347678 -3.560404,2.835356 -5.760244,4.5587 0.112548,1.785481 0.107994,3.577745 0.119756,5.365144 -0.01422,2.254686 -0.05703,4.508545 -0.122151,6.762838 3.06023,-1.240932 5.631489,-2.277651 8.236789,-3.326054 -0.136125,-2.659029 -0.385394,-5.312769 -0.931698,-7.934897 -0.424199,-1.820644 -0.835445,-3.667689 -1.542452,-5.425731 z m 26.494725,2.672126 c -1.049624,2.770321 -2.035318,5.557925 -2.938802,8.367367 -0.298938,0.954144 -0.571167,1.914619 -0.831104,2.87687 2.076062,0.832817 4.414511,1.770595 6.708708,2.690929 0.595916,-1.655623 0.337103,-0.926626 1.039478,-2.914477 0.719106,-2.141003 1.400628,-4.294388 1.923275,-6.478703 -2.044854,-1.571135 -4.144135,-3.183901 -5.901555,-4.541986 z m -34.00819,3.263377 c -2.043816,1.599159 -3.854797,3.017914 -6.004545,4.711215 -0.142989,3.102576 -0.279496,6.205808 -0.385613,9.30961 2.059568,-0.813667 4.187054,-1.67729 6.296748,-2.530058 0.07766,-2.497478 0.127534,-4.996317 0.143707,-7.494069 -0.0087,-1.330816 -0.0043,-2.665213 -0.0503,-3.996698 z m 41.471358,2.477827 c -0.497072,1.926347 -1.100434,3.831591 -1.736456,5.726581 -0.743292,2.104345 -0.378752,1.076555 -1.099356,3.079525 -0.0073,0.02031 -0.01622,0.03683 -0.02395,0.05641 3.545326,1.417356 7.108155,2.819963 10.318141,4.030126 0.02284,-0.123805 0.06566,-0.255693 0.129336,-0.396954 0.730294,-1.62001 1.493356,-3.229428 2.186736,-4.861639 -3.01285,-2.411392 -6.439424,-5.067452 -9.77445,-7.634048 z m -49.363251,3.723009 c -0.762889,0.604222 -1.549894,1.216052 -2.292122,1.809273 -0.2183,2.577208 -0.425962,5.156351 -0.629914,7.734331 0.824034,-0.314794 1.715701,-0.666708 2.58193,-1.00492 0.09258,-2.846968 0.211839,-5.69275 0.340106,-8.538684 z m -4.246533,3.367839 c -5.959542,4.814807 -10.5793885,8.827415 -10.1672491,9.541515 0.3416271,0.591925 4.3440851,-0.679015 9.7481041,-2.701375 -0.06923,-0.178678 -0.104333,-0.394527 -0.08383,-0.653929 0.163076,-2.062392 0.331308,-4.124307 0.502975,-6.186211 z m 64.826092,1.71108 c -0.623891,1.432381 -1.290221,2.851037 -1.932855,4.276654 -0.07125,0.158062 -0.155552,0.291428 -0.246697,0.403222 3.474034,1.28383 6.366265,2.255799 8.085897,2.626162 0.289524,-0.447066 0.57603,-0.896368 0.85266,-1.349643 -1.220393,-1.337048 -3.684498,-3.461466 -6.759005,-5.956395 z" />
  </g>
</svg>
