<?xml version="1.0" encoding="UTF-8" standalone="no"?>
<!-- Created with Inkscape (http://www.inkscape.org/) -->

<svg
   width="181.04944mm"
   height="102.61393mm"
   viewBox="0 0 181.04944 102.61393"
   version="1.1"
   id="svg1"
   xmlns="http://www.w3.org/2000/svg"
   xmlns:svg="http://www.w3.org/2000/svg">
  <defs
     id="defs1">
    <filter
       style="color-interpolation-filters:sRGB"
       id="filter361"
       x="0"
       y="0"
       width="1"
       height="1">
      <feColorMatrix
         values="-10 -10 -10 10 0 -10 -10 -10 10 0 -10 -10 -10 10 0 0 0 0 1 0 "
         id="feColorMatrix361"
         result="fbSourceGraphic" />
      <feColorMatrix
         result="fbSourceGraphicAlpha"
         in="fbSourceGraphic"
         values="0 0 0 -1 0 0 0 0 -1 0 0 0 0 -1 0 0 0 0 1 0"
         id="feColorMatrix1" />
      <feColorMatrix
         id="feColorMatrix2"
         type="hueRotate"
         values="180"
         result="color1"
         in="fbSourceGraphic" />
      <feColorMatrix
         id="feColorMatrix3"
         values="-1 0 0 0 1 0 -1 0 0 1 0 0 -1 0 1 -0.21 -0.72 -0.07 1.83155 0 "
         result="color2" />
    </filter>
    <filter
       style="color-interpolation-filters:sRGB"
       id="filter362"
       x="0"
       y="0"
       width="1"
       height="1">
      <feColorMatrix
         values="-10 -10 -10 10 0 -10 -10 -10 10 0 -10 -10 -10 10 0 0 0 0 1 0 "
         id="feColorMatrix362"
         result="fbSourceGraphic" />
      <feColorMatrix
         result="fbSourceGraphicAlpha"
         in="fbSourceGraphic"
         values="0 0 0 -1 0 0 0 0 -1 0 0 0 0 -1 0 0 0 0 1 0"
         id="feColorMatrix4" />
      <feColorMatrix
         id="feColorMatrix5"
         type="hueRotate"
         values="180"
         result="color1"
         in="fbSourceGraphic" />
      <feColorMatrix
         id="feColorMatrix6"
         values="-1 0 0 0 1 0 -1 0 0 1 0 0 -1 0 1 -0.21 -0.72 -0.07 1.83155 0 "
         result="color2" />
    </filter>
    <filter
       style="color-interpolation-filters:sRGB"
       id="filter363"
       x="0"
       y="0"
       width="1"
       height="1">
      <feColorMatrix
         values="-10 -10 -10 10 0 -10 -10 -10 10 0 -10 -10 -10 10 0 0 0 0 1 0 "
         id="feColorMatrix363"
         result="fbSourceGraphic" />
      <feColorMatrix
         result="fbSourceGraphicAlpha"
         in="fbSourceGraphic"
         values="0 0 0 -1 0 0 0 0 -1 0 0 0 0 -1 0 0 0 0 1 0"
         id="feColorMatrix7" />
      <feColorMatrix
         id="feColorMatrix8"
         type="hueRotate"
         values="180"
         result="color1"
         in="fbSourceGraphic" />
      <feColorMatrix
         id="feColorMatrix9"
         values="-1 0 0 0 1 0 -1 0 0 1 0 0 -1 0 1 -0.21 -0.72 -0.07 1.83155 0 "
         result="color2" />
    </filter>
    <filter
       style="color-interpolation-filters:sRGB"
       id="filter364"
       x="0"
       y="0"
       width="1"
       height="1">
      <feColorMatrix
         values="-10 -10 -10 10 0 -10 -10 -10 10 0 -10 -10 -10 10 0 0 0 0 1 0 "
         id="feColorMatrix364"
         result="fbSourceGraphic" />
      <feColorMatrix
         result="fbSourceGraphicAlpha"
         in="fbSourceGraphic"
         values="0 0 0 -1 0 0 0 0 -1 0 0 0 0 -1 0 0 0 0 1 0"
         id="feColorMatrix10" />
      <feColorMatrix
         id="feColorMatrix11"
         type="hueRotate"
         values="180"
         result="color1"
         in="fbSourceGraphic" />
      <feColorMatrix
         id="feColorMatrix12"
         values="-1 0 0 0 1 0 -1 0 0 1 0 0 -1 0 1 -0.21 -0.72 -0.07 1.83155 0 "
         result="color2" />
    </filter>
    <filter
       style="color-interpolation-filters:sRGB"
       id="filter365"
       x="0"
       y="0"
       width="1"
       height="1">
      <feColorMatrix
         values="-10 -10 -10 10 0 -10 -10 -10 10 0 -10 -10 -10 10 0 0 0 0 1 0 "
         id="feColorMatrix365"
         result="fbSourceGraphic" />
      <feColorMatrix
         result="fbSourceGraphicAlpha"
         in="fbSourceGraphic"
         values="0 0 0 -1 0 0 0 0 -1 0 0 0 0 -1 0 0 0 0 1 0"
         id="feColorMatrix13" />
      <feColorMatrix
         id="feColorMatrix14"
         type="hueRotate"
         values="180"
         result="color1"
         in="fbSourceGraphic" />
      <feColorMatrix
         id="feColorMatrix15"
         values="-1 0 0 0 1 0 -1 0 0 1 0 0 -1 0 1 -0.21 -0.72 -0.07 1.83155 0 "
         result="color2" />
    </filter>
    <filter
       style="color-interpolation-filters:sRGB"
       id="filter366"
       x="0"
       y="0"
       width="1"
       height="1">
      <feColorMatrix
         values="-10 -10 -10 10 0 -10 -10 -10 10 0 -10 -10 -10 10 0 0 0 0 1 0 "
         id="feColorMatrix366"
         result="fbSourceGraphic" />
      <feColorMatrix
         result="fbSourceGraphicAlpha"
         in="fbSourceGraphic"
         values="0 0 0 -1 0 0 0 0 -1 0 0 0 0 -1 0 0 0 0 1 0"
         id="feColorMatrix16" />
      <feColorMatrix
         id="feColorMatrix17"
         type="hueRotate"
         values="180"
         result="color1"
         in="fbSourceGraphic" />
      <feColorMatrix
         id="feColorMatrix18"
         values="-1 0 0 0 1 0 -1 0 0 1 0 0 -1 0 1 -0.21 -0.72 -0.07 1.83155 0 "
         result="color2" />
    </filter>
    <filter
       style="color-interpolation-filters:sRGB"
       id="filter367"
       x="0"
       y="0"
       width="1"
       height="1">
      <feColorMatrix
         values="-10 -10 -10 10 0 -10 -10 -10 10 0 -10 -10 -10 10 0 0 0 0 1 0 "
         id="feColorMatrix367"
         result="fbSourceGraphic" />
      <feColorMatrix
         result="fbSourceGraphicAlpha"
         in="fbSourceGraphic"
         values="0 0 0 -1 0 0 0 0 -1 0 0 0 0 -1 0 0 0 0 1 0"
         id="feColorMatrix19" />
      <feColorMatrix
         id="feColorMatrix20"
         type="hueRotate"
         values="180"
         result="color1"
         in="fbSourceGraphic" />
      <feColorMatrix
         id="feColorMatrix21"
         values="-1 0 0 0 1 0 -1 0 0 1 0 0 -1 0 1 -0.21 -0.72 -0.07 1.83155 0 "
         result="color2" />
    </filter>
    <filter
       style="color-interpolation-filters:sRGB"
       id="filter368"
       x="0"
       y="0"
       width="1"
       height="1">
      <feColorMatrix
         values="-10 -10 -10 10 0 -10 -10 -10 10 0 -10 -10 -10 10 0 0 0 0 1 0 "
         id="feColorMatrix368"
         result="fbSourceGraphic" />
      <feColorMatrix
         result="fbSourceGraphicAlpha"
         in="fbSourceGraphic"
         values="0 0 0 -1 0 0 0 0 -1 0 0 0 0 -1 0 0 0 0 1 0"
         id="feColorMatrix22" />
      <feColorMatrix
         id="feColorMatrix23"
         type="hueRotate"
         values="180"
         result="color1"
         in="fbSourceGraphic" />
      <feColorMatrix
         id="feColorMatrix24"
         values="-1 0 0 0 1 0 -1 0 0 1 0 0 -1 0 1 -0.21 -0.72 -0.07 1.83155 0 "
         result="color2" />
    </filter>
    <filter
       style="color-interpolation-filters:sRGB"
       id="filter369"
       x="0"
       y="0"
       width="1"
       height="1">
      <feColorMatrix
         values="-10 -10 -10 10 0 -10 -10 -10 10 0 -10 -10 -10 10 0 0 0 0 1 0 "
         id="feColorMatrix369"
         result="fbSourceGraphic" />
      <feColorMatrix
         result="fbSourceGraphicAlpha"
         in="fbSourceGraphic"
         values="0 0 0 -1 0 0 0 0 -1 0 0 0 0 -1 0 0 0 0 1 0"
         id="feColorMatrix25" />
      <feColorMatrix
         id="feColorMatrix26"
         type="hueRotate"
         values="180"
         result="color1"
         in="fbSourceGraphic" />
      <feColorMatrix
         id="feColorMatrix27"
         values="-1 0 0 0 1 0 -1 0 0 1 0 0 -1 0 1 -0.21 -0.72 -0.07 1.83155 0 "
         result="color2" />
    </filter>
    <filter
       style="color-interpolation-filters:sRGB"
       id="filter370"
       x="0"
       y="0"
       width="1"
       height="1">
      <feColorMatrix
         values="-10 -10 -10 10 0 -10 -10 -10 10 0 -10 -10 -10 10 0 0 0 0 1 0 "
         id="feColorMatrix370"
         result="fbSourceGraphic" />
      <feColorMatrix
         result="fbSourceGraphicAlpha"
         in="fbSourceGraphic"
         values="0 0 0 -1 0 0 0 0 -1 0 0 0 0 -1 0 0 0 0 1 0"
         id="feColorMatrix28" />
      <feColorMatrix
         id="feColorMatrix29"
         type="hueRotate"
         values="180"
         result="color1"
         in="fbSourceGraphic" />
      <feColorMatrix
         id="feColorMatrix30"
         values="-1 0 0 0 1 0 -1 0 0 1 0 0 -1 0 1 -0.21 -0.72 -0.07 1.83155 0 "
         result="color2" />
    </filter>
    <filter
       style="color-interpolation-filters:sRGB"
       id="filter371"
       x="0"
       y="0"
       width="1"
       height="1">
      <feColorMatrix
         values="-10 -10 -10 10 0 -10 -10 -10 10 0 -10 -10 -10 10 0 0 0 0 1 0 "
         id="feColorMatrix371"
         result="fbSourceGraphic" />
      <feColorMatrix
         result="fbSourceGraphicAlpha"
         in="fbSourceGraphic"
         values="0 0 0 -1 0 0 0 0 -1 0 0 0 0 -1 0 0 0 0 1 0"
         id="feColorMatrix31" />
      <feColorMatrix
         id="feColorMatrix32"
         type="hueRotate"
         values="180"
         result="color1"
         in="fbSourceGraphic" />
      <feColorMatrix
         id="feColorMatrix33"
         values="-1 0 0 0 1 0 -1 0 0 1 0 0 -1 0 1 -0.21 -0.72 -0.07 1.83155 0 "
         result="color2" />
    </filter>
    <filter
       style="color-interpolation-filters:sRGB"
       id="filter372"
       x="0"
       y="0"
       width="1"
       height="1">
      <feColorMatrix
         values="-10 -10 -10 10 0 -10 -10 -10 10 0 -10 -10 -10 10 0 0 0 0 1 0 "
         id="feColorMatrix372"
         result="fbSourceGraphic" />
      <feColorMatrix
         result="fbSourceGraphicAlpha"
         in="fbSourceGraphic"
         values="0 0 0 -1 0 0 0 0 -1 0 0 0 0 -1 0 0 0 0 1 0"
         id="feColorMatrix34" />
      <feColorMatrix
         id="feColorMatrix35"
         type="hueRotate"
         values="180"
         result="color1"
         in="fbSourceGraphic" />
      <feColorMatrix
         id="feColorMatrix36"
         values="-1 0 0 0 1 0 -1 0 0 1 0 0 -1 0 1 -0.21 -0.72 -0.07 1.83155 0 "
         result="color2" />
    </filter>
    <filter
       style="color-interpolation-filters:sRGB"
       id="filter373"
       x="0"
       y="0"
       width="1"
       height="1">
      <feColorMatrix
         values="-10 -10 -10 10 0 -10 -10 -10 10 0 -10 -10 -10 10 0 0 0 0 1 0 "
         id="feColorMatrix373"
         result="fbSourceGraphic" />
      <feColorMatrix
         result="fbSourceGraphicAlpha"
         in="fbSourceGraphic"
         values="0 0 0 -1 0 0 0 0 -1 0 0 0 0 -1 0 0 0 0 1 0"
         id="feColorMatrix37" />
      <feColorMatrix
         id="feColorMatrix38"
         type="hueRotate"
         values="180"
         result="color1"
         in="fbSourceGraphic" />
      <feColorMatrix
         id="feColorMatrix39"
         values="-1 0 0 0 1 0 -1 0 0 1 0 0 -1 0 1 -0.21 -0.72 -0.07 1.83155 0 "
         result="color2" />
    </filter>
    <filter
       style="color-interpolation-filters:sRGB"
       id="filter374"
       x="0"
       y="0"
       width="1"
       height="1">
      <feColorMatrix
         values="-10 -10 -10 10 0 -10 -10 -10 10 0 -10 -10 -10 10 0 0 0 0 1 0 "
         id="feColorMatrix374"
         result="fbSourceGraphic" />
      <feColorMatrix
         result="fbSourceGraphicAlpha"
         in="fbSourceGraphic"
         values="0 0 0 -1 0 0 0 0 -1 0 0 0 0 -1 0 0 0 0 1 0"
         id="feColorMatrix40" />
      <feColorMatrix
         id="feColorMatrix41"
         type="hueRotate"
         values="180"
         result="color1"
         in="fbSourceGraphic" />
      <feColorMatrix
         id="feColorMatrix42"
         values="-1 0 0 0 1 0 -1 0 0 1 0 0 -1 0 1 -0.21 -0.72 -0.07 1.83155 0 "
         result="color2" />
    </filter>
    <filter
       style="color-interpolation-filters:sRGB"
       id="filter375"
       x="0"
       y="0"
       width="1"
       height="1">
      <feColorMatrix
         values="-10 -10 -10 10 0 -10 -10 -10 10 0 -10 -10 -10 10 0 0 0 0 1 0 "
         id="feColorMatrix375"
         result="fbSourceGraphic" />
      <feColorMatrix
         result="fbSourceGraphicAlpha"
         in="fbSourceGraphic"
         values="0 0 0 -1 0 0 0 0 -1 0 0 0 0 -1 0 0 0 0 1 0"
         id="feColorMatrix43" />
      <feColorMatrix
         id="feColorMatrix44"
         type="hueRotate"
         values="180"
         result="color1"
         in="fbSourceGraphic" />
      <feColorMatrix
         id="feColorMatrix45"
         values="-1 0 0 0 1 0 -1 0 0 1 0 0 -1 0 1 -0.21 -0.72 -0.07 1.83155 0 "
         result="color2" />
    </filter>
    <filter
       style="color-interpolation-filters:sRGB"
       id="filter376"
       x="0"
       y="0"
       width="1"
       height="1">
      <feColorMatrix
         values="-10 -10 -10 10 0 -10 -10 -10 10 0 -10 -10 -10 10 0 0 0 0 1 0 "
         id="feColorMatrix376"
         result="fbSourceGraphic" />
      <feColorMatrix
         result="fbSourceGraphicAlpha"
         in="fbSourceGraphic"
         values="0 0 0 -1 0 0 0 0 -1 0 0 0 0 -1 0 0 0 0 1 0"
         id="feColorMatrix46" />
      <feColorMatrix
         id="feColorMatrix47"
         type="hueRotate"
         values="180"
         result="color1"
         in="fbSourceGraphic" />
      <feColorMatrix
         id="feColorMatrix48"
         values="-1 0 0 0 1 0 -1 0 0 1 0 0 -1 0 1 -0.21 -0.72 -0.07 1.83155 0 "
         result="color2" />
    </filter>
  </defs>
  <g
     id="layer1"
     transform="translate(-14.763116,-84.456066)">
    <path
       fill-rule="evenodd"
       clip-rule="evenodd"
       fill="#3a4d54"
       d="m 118.09378,119.2589 h 15.30528 v 15.57618 h 7.72038 c 3.52156,0 7.17857,-0.67721 10.5647,-1.7608 1.62534,-0.54176 3.52156,-1.35442 5.1469,-2.30254 -2.16711,-2.84438 -3.25067,-6.36591 -3.52156,-9.8875 -0.40631,-4.74056 0.54177,-10.97107 3.79246,-14.62805 l 1.62534,-1.89625 1.89623,1.48988 c 4.87601,3.92795 8.80392,9.21027 9.61659,15.44073 5.82413,-1.76075 12.59638,-1.35443 17.74329,1.62534 l 2.03167,1.21904 -1.08356,2.16709 c -4.33424,8.39761 -13.40904,11.10652 -22.21297,10.56471 -13.27361,32.91316 -41.98795,48.48934 -76.932744,48.48934 -18.014184,0 -34.538473,-6.77227 -44.01962,-22.75476 l -0.135453,-0.2708 -1.354448,-2.84438 c -3.25068,-7.04312 -4.198793,-14.76345 -3.521571,-22.48385 L 41.0256,134.69974 H 54.028319 V 119.2589 H 69.333602 V 104.08909 H 99.808719 V 88.783756 H 118.0938 Z"
       id="path1"
       style="stroke-width:1.35445;filter:url(#filter376)"
       transform="matrix(1.0625604,0,0,1.0625604,-6.0899312,-9.8820443)" />
    <path
       fill="#00aada"
       d="m 167.66665,125.08304 c 1.08356,-7.99124 -4.87603,-14.22175 -8.66849,-17.20152 -4.19879,4.87602 -4.87601,17.87874 1.76079,23.29653 -3.79246,3.25067 -11.51282,6.36589 -19.63951,6.36589 H 43.328156 c -0.812669,8.39761 0.677223,16.118 4.06335,22.75477 l 1.083556,2.0317 c 0.677226,1.21897 1.489896,2.30254 2.302567,3.52158 4.063349,0.2708 7.720363,0.40647 11.106485,0.2708 6.636808,-0.13565 12.054605,-0.94812 16.253403,-2.3026 0.677225,-0.27081 1.219,0.13566 1.489887,0.67726 0.270913,0.67722 -0.13545,1.21899 -0.677212,1.48989 -0.541787,0.13565 -1.083562,0.40647 -1.760799,0.54176 -3.250674,0.94813 -6.772239,1.48989 -11.241929,1.7608 h -0.81267 c -1.760783,0.13566 -3.657014,0.13566 -5.688688,0.13566 -2.167119,0 -4.198793,0 -6.636803,-0.13566 8.126698,9.21027 20.858529,14.62806 36.841033,14.62806 33.861244,0 62.575584,-15.03442 75.171964,-48.62474 9.07481,0.94812 17.74329,-1.35449 21.6712,-9.07482 -6.09504,-3.65705 -14.22173,-2.43801 -18.82685,-0.13567 z"
       id="path2"
       style="stroke-width:1.35445;filter:url(#filter375)"
       transform="matrix(1.0625604,0,0,1.0625604,-6.0899312,-9.8820443)" />
    <path
       fill="#28b8eb"
       d="m 167.66665,125.08304 c 1.08356,-7.99124 -4.87603,-14.22175 -8.66849,-17.20152 -4.19879,4.87602 -4.87601,17.87874 1.76079,23.29653 -3.79246,3.25067 -11.51282,6.36589 -19.63951,6.36589 H 49.016846 c -0.406309,12.86732 4.334235,22.61936 12.867268,28.44345 6.636808,-0.13514 12.054605,-0.94807 16.253403,-2.30256 0.677225,-0.2708 1.219,0.13567 1.489887,0.67722 0.270913,0.67727 -0.13545,1.21903 -0.677212,1.48994 -0.541787,0.13566 -1.083562,0.40647 -1.760799,0.54176 -3.250674,0.94813 -7.043132,1.62534 -11.512815,1.89625 l -0.135454,-0.13566 c 11.512819,5.95954 28.172548,5.82414 47.405736,-1.48989 21.40032,-8.26215 41.44617,-23.97378 55.397,-41.85252 -0.2709,0.13566 -0.54179,0.13566 -0.67723,0.2708 z"
       id="path3"
       style="stroke-width:1.35445;filter:url(#filter374)"
       transform="matrix(1.0625604,0,0,1.0625604,-6.0899312,-9.8820443)" />
    <path
       fill="#028bb8"
       d="m 43.4636,147.70235 c 0.541779,4.46965 1.896232,8.66846 3.927906,12.59636 l 1.083556,2.0317 c 0.677226,1.21897 1.489896,2.30254 2.302567,3.52158 4.063349,0.2708 7.720363,0.40647 11.106485,0.2708 6.636808,-0.13565 12.054605,-0.94812 16.253403,-2.3026 0.677225,-0.27081 1.219,0.13566 1.489887,0.67726 0.270913,0.67722 -0.13545,1.21899 -0.677212,1.48989 -0.541787,0.13565 -1.083562,0.40647 -1.760799,0.54176 -3.250674,0.94813 -7.043132,1.62534 -11.512815,1.89625 h -0.541784 c -1.760783,0.13566 -3.657014,0.13566 -5.553241,0.13566 -2.167123,0 -4.33424,0 -6.636807,-0.13566 8.126699,9.21022 20.993973,14.62806 36.976478,14.62806 28.985236,0 54.177996,-10.97107 68.806056,-35.21571 H 43.4636 Z"
       id="path4"
       style="stroke-width:1.35445;filter:url(#filter373)"
       transform="matrix(1.0625604,0,0,1.0625604,-6.0899312,-9.8820443)" />
    <path
       fill="#019bc6"
       d="m 49.964958,147.70235 c 1.760784,7.85578 5.824133,14.08629 11.919156,18.28504 6.636808,-0.13514 12.054605,-0.94807 16.253403,-2.30256 0.677225,-0.2708 1.219,0.13567 1.489887,0.67722 0.270913,0.67727 -0.13545,1.21903 -0.677212,1.48994 -0.541787,0.13566 -1.083562,0.40647 -1.760799,0.54176 -3.250674,0.94813 -7.043132,1.62534 -11.648264,1.89625 11.512826,5.95955 28.172555,5.82409 47.270291,-1.48993 11.51284,-4.46966 22.75477,-11.10647 32.7777,-19.09772 z"
       id="path5"
       style="stroke-width:1.35445;filter:url(#filter372)"
       transform="matrix(1.0625604,0,0,1.0625604,-6.0899312,-9.8820443)" />
    <path
       fill-rule="evenodd"
       clip-rule="evenodd"
       fill="#00acd3"
       d="M 56.601761,121.83236 H 69.87537 v 13.27357 H 56.601761 Z m 1.083562,1.08353 h 1.083561 v 10.97107 h -1.083561 z m 1.89623,0 h 1.083557 v 10.97107 h -1.083557 z m 2.031675,0 h 1.083557 v 10.97107 h -1.083557 z m 2.031674,0 h 1.083557 v 10.97107 h -1.083557 z m 2.031676,0 h 1.083556 v 10.97107 h -1.083556 z m 2.031675,0 h 1.083555 v 10.97107 h -1.083555 z m 4.063349,-16.25339 h 13.273612 v 13.27362 H 71.771602 Z m 1.219004,1.08357 h 1.083562 v 10.97107 h -1.083562 z m 1.896232,0 h 1.083555 v 10.97107 h -1.083555 z m 2.03168,0 h 1.083549 v 10.97107 h -1.083549 z m 2.031674,0 h 1.083549 v 10.97107 h -1.083549 z m 1.896224,0 h 1.083562 v 10.97107 h -1.083562 z m 2.031674,0 h 1.083562 v 10.97107 H 82.87809 Z"
       id="path6"
       style="stroke-width:1.35445;filter:url(#filter371)"
       transform="matrix(1.0625604,0,0,1.0625604,-6.0899312,-9.8820443)" />
    <path
       fill-rule="evenodd"
       clip-rule="evenodd"
       fill="#23c2ee"
       d="m 71.771602,121.83236 h 13.273612 v 13.27357 H 71.771602 Z m 1.219004,1.08353 h 1.083562 v 10.97107 h -1.083562 z m 1.896232,0 h 1.083555 v 10.97107 h -1.083555 z m 2.03168,0 h 1.083549 v 10.97107 h -1.083549 z m 2.031674,0 h 1.083549 v 10.97107 h -1.083549 z m 1.896224,0 h 1.083562 v 10.97107 h -1.083562 z m 2.031674,0 h 1.083562 v 10.97107 H 82.87809 Z"
       id="path7"
       style="stroke-width:1.35445;filter:url(#filter370)"
       transform="matrix(1.0625604,0,0,1.0625604,-6.0899312,-9.8820443)" />
    <path
       fill-rule="evenodd"
       clip-rule="evenodd"
       fill="#00acd3"
       d="m 87.076888,121.83236 h 13.273602 v 13.27357 H 87.076888 Z m 1.083549,1.08353 h 1.083562 v 10.97107 h -1.083562 z m 2.031674,0 h 1.083562 v 10.97107 h -1.083562 z m 2.031674,0 h 1.083562 v 10.97107 h -1.083562 z m 1.896237,0 h 1.083562 v 10.97107 h -1.083562 z m 2.031674,0 h 1.083562 v 10.97107 h -1.083562 z m 2.031674,0 h 1.083562 v 10.97107 H 98.18337 Z"
       id="path8"
       style="stroke-width:1.35445;filter:url(#filter369)"
       transform="matrix(1.0625604,0,0,1.0625604,-6.0899312,-9.8820443)" />
    <path
       fill-rule="evenodd"
       clip-rule="evenodd"
       fill="#23c2ee"
       d="m 87.076888,106.6625 h 13.273602 v 13.27362 H 87.076888 Z m 1.083549,1.08357 h 1.083562 v 10.97107 h -1.083562 z m 2.031674,0 h 1.083562 v 10.97107 h -1.083562 z m 2.031674,0 h 1.083562 v 10.97107 h -1.083562 z m 1.896237,0 h 1.083562 v 10.97107 h -1.083562 z m 2.031674,0 h 1.083562 v 10.97107 h -1.083562 z m 2.031674,0 h 1.083562 v 10.97107 H 98.18337 Z m 4.1988,14.08629 h 13.2736 v 13.27357 h -13.2736 z m 1.08356,1.08353 h 1.08356 v 10.97107 h -1.08356 z m 2.03167,0 h 1.08357 v 10.97107 h -1.08357 z m 1.89623,0 h 1.08356 v 10.97107 h -1.08356 z m 2.03167,0 h 1.08356 v 10.97107 h -1.08356 z m 2.03168,0 h 1.08356 v 10.97107 h -1.08356 z m 2.03168,0 h 1.08355 v 10.97107 h -1.08355 z"
       id="path9"
       style="stroke-width:1.35445;filter:url(#filter368)"
       transform="matrix(1.0625604,0,0,1.0625604,-6.0899312,-9.8820443)" />
    <path
       fill-rule="evenodd"
       clip-rule="evenodd"
       fill="#00acd3"
       d="m 102.38217,106.6625 h 13.2736 v 13.27362 h -13.2736 z m 1.08356,1.08357 h 1.08356 v 10.97107 h -1.08356 z m 2.03167,0 h 1.08357 v 10.97107 h -1.08357 z m 1.89623,0 h 1.08356 v 10.97107 h -1.08356 z m 2.03167,0 h 1.08356 v 10.97107 h -1.08356 z m 2.03168,0 h 1.08356 v 10.97107 h -1.08356 z m 2.03168,0 h 1.08355 v 10.97107 h -1.08355 z"
       id="path10"
       style="stroke-width:1.35445;filter:url(#filter367)"
       transform="matrix(1.0625604,0,0,1.0625604,-6.0899312,-9.8820443)" />
    <path
       fill-rule="evenodd"
       clip-rule="evenodd"
       fill="#23c2ee"
       d="m 102.38217,91.357217 h 13.2736 v 13.273633 h -13.2736 z m 1.08356,1.083575 h 1.08356 v 10.971018 h -1.08356 z m 2.03167,0 h 1.08357 v 10.971018 h -1.08357 z m 1.89623,0 h 1.08356 v 10.971018 h -1.08356 z m 2.03167,0 h 1.08356 v 10.971018 h -1.08356 z m 2.03168,0 h 1.08356 v 10.971018 h -1.08356 z m 2.03168,0 h 1.08355 v 10.971018 h -1.08355 z"
       id="path11"
       style="stroke-width:1.35445;filter:url(#filter366)"
       transform="matrix(1.0625604,0,0,1.0625604,-6.0899312,-9.8820443)" />
    <path
       fill-rule="evenodd"
       clip-rule="evenodd"
       fill="#00acd3"
       d="m 117.68745,121.83236 h 13.2736 v 13.27357 h -13.2736 z m 1.08356,1.08353 h 1.08356 v 10.97107 h -1.08356 z m 1.89622,0 h 1.08356 v 10.97107 h -1.08356 z m 2.03168,0 h 1.08356 v 10.97107 h -1.08356 z m 2.03167,0 h 1.08356 v 10.97107 h -1.08356 z m 2.03167,0 h 1.08357 v 10.97107 h -1.08357 z m 2.03168,0 h 1.08356 v 10.97107 h -1.08356 z"
       id="path12"
       style="stroke-width:1.35445;filter:url(#filter365)"
       transform="matrix(1.0625604,0,0,1.0625604,-6.0899312,-9.8820443)" />
    <path
       fill-rule="evenodd"
       clip-rule="evenodd"
       fill="#d4eef1"
       d="m 84.232539,156.50626 c 2.031674,0 3.657011,1.62534 3.657011,3.65704 0,2.03166 -1.625337,3.65699 -3.657011,3.65699 -2.031674,0 -3.65701,-1.62533 -3.65701,-3.65699 0,-2.0317 1.625336,-3.65704 3.65701,-3.65704"
       id="path13"
       style="stroke-width:1.35445;filter:url(#filter364)"
       transform="matrix(1.0625604,0,0,1.0625604,-6.0899312,-9.8820443)" />
    <path
       fill-rule="evenodd"
       clip-rule="evenodd"
       fill="#3a4d54"
       d="m 84.232539,157.58983 c 0.270913,0 0.677225,0 0.948112,0.13567 -0.2709,0.13565 -0.541774,0.54176 -0.541774,0.94813 0,0.54176 0.541774,1.08352 1.083562,1.08352 0.40635,0 0.812662,-0.27081 0.948112,-0.54176 0.13545,0.2708 0.13545,0.67721 0.13545,0.94812 0,1.48988 -1.219,2.57346 -2.573449,2.57346 -1.489899,0 -2.573461,-1.21903 -2.573461,-2.57346 0,-1.35443 1.083562,-2.57347 2.573461,-2.57347 m -64.60727,-8.53306 H 189.47329 c -3.65702,-0.94813 -11.64827,-2.1671 -10.42926,-7.04312 -6.77226,7.72034 -22.8902,5.41778 -27.089,1.62535 -4.60514,6.63681 -31.15235,4.06335 -32.91313,-1.08359 -5.68869,6.77227 -23.431979,6.77227 -29.120676,0 -1.896224,5.14694 -28.443444,7.7204 -32.913128,1.08359 -4.06335,3.79243 -20.316746,6.09499 -27.088993,-1.62535 1.489892,4.74057 -6.636806,6.09499 -10.293821,7.04312"
       id="path14"
       style="stroke-width:1.35445;filter:url(#filter363)"
       transform="matrix(1.0625604,0,0,1.0625604,-6.0899312,-9.8820443)" />
    <path
       fill="#bfdbe0"
       d="m 93.984584,182.91806 c -9.07482,-4.33426 -13.950843,-10.1584 -16.795191,-16.52431 -3.386117,0.94813 -7.449466,1.62534 -12.054599,1.89625 -1.760783,0.13566 -3.657014,0.13566 -5.553241,0.13566 -2.302566,0 -4.605133,0 -7.043141,-0.13566 8.126698,8.1267 18.420519,14.49261 37.247374,14.62806 z"
       id="path15"
       style="stroke-width:1.35445;filter:url(#filter362)"
       transform="matrix(1.0625604,0,0,1.0625604,-6.0899312,-9.8820443)" />
    <path
       fill="#d4eef1"
       d="m 80.575529,172.2179 c -1.219012,-1.7608 -2.438012,-3.7925 -3.386136,-5.82415 -3.386117,0.94813 -7.449466,1.62534 -12.054599,1.89625 3.115236,1.62534 7.720369,3.25068 15.440735,3.9279 z"
       id="path16"
       style="stroke-width:1.35445;filter:url(#filter361)"
       transform="matrix(1.0625604,0,0,1.0625604,-6.0899312,-9.8820443)" />
  </g>
</svg>
