<?xml version="1.0" encoding="UTF-8" standalone="no"?>
<!-- Created with Inkscape (http://www.inkscape.org/) -->

<svg
   width="162.62045mm"
   height="120.749mm"
   viewBox="0 0 162.62045 120.749"
   version="1.1"
   id="svg1"
   xmlns="http://www.w3.org/2000/svg"
   xmlns:svg="http://www.w3.org/2000/svg">
  <defs
     id="defs1">
    <filter
       style="color-interpolation-filters:sRGB"
       id="filter51"
       x="-0.01354"
       y="-0.027096806"
       width="1.0334556"
       height="1.0422526">
      <feColorMatrix
         type="hueRotate"
         values="180"
         result="color1"
         id="feColorMatrix50" />
      <feColorMatrix
         values="-1 0 0 0 1 0 -1 0 0 1 0 0 -1 0 1 -0.21 -0.72 -0.07 1.44748 0 "
         result="fbSourceGraphic"
         id="feColorMatrix51" />
      <feColorMatrix
         result="fbSourceGraphicAlpha"
         in="fbSourceGraphic"
         values="0 0 0 -1 0 0 0 0 -1 0 0 0 0 -1 0 0 0 0 1 0"
         id="feColorMatrix52" />
      <feColorMatrix
         id="feColorMatrix53"
         values="1 0 0 0 0 1 0 0 0 0 1 0 0 0 0 0 0 0 0 1 "
         type="matrix"
         result="r"
         in="fbSourceGraphic" />
      <feColorMatrix
         id="feColorMatrix54"
         values="0 1 0 0 0 0 1 0 0 0 0 1 0 0 0 0 0 0 0 1 "
         type="matrix"
         result="g"
         in="fbSourceGraphic" />
      <feColorMatrix
         id="feColorMatrix55"
         values="0 0 1 0 0 0 0 1 0 0 0 0 1 0 0 0 0 0 0 1 "
         type="matrix"
         result="b"
         in="fbSourceGraphic" />
      <feBlend
         id="feBlend55"
         result="minrg"
         in="r"
         mode="darken"
         in2="g" />
      <feBlend
         id="feBlend56"
         result="p"
         in="minrg"
         mode="darken"
         in2="b" />
      <feBlend
         id="feBlend57"
         result="maxrg"
         in="r"
         mode="lighten"
         in2="g" />
      <feBlend
         id="feBlend58"
         result="q"
         in="maxrg"
         mode="lighten"
         in2="b" />
      <feComponentTransfer
         id="feComponentTransfer58"
         result="q2"
         in="q">
        <feFuncR
           id="feFuncR58"
           slope="0"
           type="linear" />
      </feComponentTransfer>
      <feBlend
         id="feBlend59"
         result="pq"
         in="p"
         mode="lighten"
         in2="q2" />
      <feColorMatrix
         id="feColorMatrix59"
         values="-1 1 0 0 0 -1 1 0 0 0 -1 1 0 0 0 0 0 0 0 1 "
         type="matrix"
         result="qminp"
         in="pq" />
      <feComposite
         id="feComposite59"
         k3="1"
         operator="arithmetic"
         result="qminpc"
         in="qminp"
         in2="qminp"
         k1="0"
         k2="0"
         k4="0" />
      <feBlend
         id="feBlend60"
         result="result2"
         in2="fbSourceGraphic"
         mode="screen" />
      <feComposite
         id="feComposite60"
         operator="in"
         in="result2"
         in2="fbSourceGraphic"
         result="fbSourceGraphic" />
      <feColorMatrix
         result="fbSourceGraphicAlpha"
         in="fbSourceGraphic"
         values="0 0 0 -1 0 0 0 0 -1 0 0 0 0 -1 0 0 0 0 1 0"
         id="feColorMatrix62" />
      <feColorMatrix
         id="feColorMatrix63"
         values="-5.89905 -5.07886 -5.53496 -6.46688 0 -5.89905 -5.07886 -5.53496 -6.46688 0 -5.89905 -5.07886 -5.53496 -6.46688 0 0 0 0 1 0 "
         in="fbSourceGraphic"
         result="fbSourceGraphic" />
      <feColorMatrix
         result="fbSourceGraphicAlpha"
         in="fbSourceGraphic"
         values="0 0 0 -1 0 0 0 0 -1 0 0 0 0 -1 0 0 0 0 1 0"
         id="feColorMatrix64" />
      <feColorMatrix
         id="feColorMatrix65"
         type="luminanceToAlpha"
         result="result2"
         in="fbSourceGraphic" />
      <feComposite
         id="feComposite65"
         in2="fbSourceGraphic"
         operator="arithmetic"
         in="result2"
         k3="2"
         result="result4"
         k1="0"
         k2="0"
         k4="0" />
      <feBlend
         id="feBlend65"
         in="result4"
         mode="multiply"
         result="result3"
         in2="result2" />
      <feComposite
         id="feComposite66"
         in2="fbSourceGraphic"
         operator="in"
         in="result3"
         result="fbSourceGraphic" />
      <feColorMatrix
         result="fbSourceGraphicAlpha"
         in="fbSourceGraphic"
         values="0 0 0 -1 0 0 0 0 -1 0 0 0 0 -1 0 0 0 0 1 0"
         id="feColorMatrix68" />
      <feColorMatrix
         id="feColorMatrix69"
         values="1 0 0 0 0 0 1 0 0 0 0 0 1 0 0 0 0 0 1 0"
         in="fbSourceGraphic"
         result="fbSourceGraphic" />
      <feColorMatrix
         result="fbSourceGraphicAlpha"
         in="fbSourceGraphic"
         values="0 0 0 -1 0 0 0 0 -1 0 0 0 0 -1 0 0 0 0 1 0"
         id="feColorMatrix72" />
      <feColorMatrix
         id="feColorMatrix73"
         values="1 0 0 0 0 0 1 0 0 0 0 0 1 0 0 0 0 0 1 0"
         in="fbSourceGraphic" />
      <feGaussianBlur
         stdDeviation="1.2013582e-05"
         id="feGaussianBlur75"
         result="fbSourceGraphic" />
      <feColorMatrix
         result="fbSourceGraphicAlpha"
         in="fbSourceGraphic"
         values="0 0 0 -1 0 0 0 0 -1 0 0 0 0 -1 0 0 0 0 1 0"
         id="feColorMatrix1" />
      <feColorMatrix
         id="feColorMatrix2"
         type="hueRotate"
         values="180"
         result="color1"
         in="fbSourceGraphic" />
      <feColorMatrix
         id="feColorMatrix3"
         values="-1 0 0 0 1 0 -1 0 0 1 0 0 -1 0 1 -0.21 -0.72 -0.07 1.44748 0 "
         result="color2" />
    </filter>
    <filter
       id="f-6"
       x="-0.013539929"
       y="-0.027096709"
       width="1.0334555"
       height="1.0422524"
       color-interpolation-filters="sRGB">
      <feGaussianBlur
         stdDeviation="1.7572093"
         id="feGaussianBlur6-5" />
    </filter>
  </defs>
  <g
     id="layer1"
     transform="translate(-19.776198,-75.969094)">
    <g
       transform="matrix(0.38869855,0,0,0.38869855,22.104645,29.469718)"
       fill="#ffffff"
       id="g12"
       style="fill:#030303;fill-opacity:1;stroke:#0a0a0a;stroke-width:7.71806;stroke-dasharray:none;stroke-opacity:1;filter:url(#filter51)">
      <path
         d="m 69.929,127.71 c -29.464,0.0337 -48.949,2.4206 -48.949,2.4206 0,0 107.73,-5.1706 194.03,29.769 2.9338,13.122 11.759,34.976 16.513,45.481 -13.602,9.4041 -28.94,18.249 -31.328,49.612 -2.3877,31.362 24.576,58.947 58.013,59.798 31.751,1.6913 53.688,1.9323 80.277,15.718 25.38,14.034 46.192,56.794 48.251,95.252 2.2244,-28.534 -8.4845,-89.895 -58.453,-108.53 69.826,12.219 75.982,63.973 75.984,63.994 0,0 5.2056,-59.754 -88.677,-73.531 -11.899,-1.7458 -26.947,-3.0899 -42.168,-3.1283 -75.246,0.99487 -77.989,-86.786 -21.288,-91.218 23.499,-1.9389 51.556,10.738 78.986,23.512 -0.10182,3.4068 0.0404,6.4339 2.2787,9.2314 2.2375,2.7966 10.832,5.8474 13.579,7.4233 2.7464,1.5764 11.545,7.1715 16.937,14.189 1.1692,-2.1872 10.933,-8.5432 10.933,-8.5432 0,0 -2.3391,0.0507 -7.781,-1.9832 -5.4426,-2.0339 -11.9,-8.1876 -12.053,-8.5432 -0.15246,-0.35625 -0.25501,-0.91601 1.0169,-1.1705 0.96572,-0.81305 -1.2209,-3.4575 -2.1873,-4.4232 -0.96572,-0.96636 -7.4247,-11.95 -7.5769,-12.204 -0.15245,-0.25447 -0.20376,-0.50931 -0.66105,-0.81465 -1.4244,-0.45805 -7.6799,0.66106 -7.6799,0.66106 0,0 -9.6211,-4.7252 -12.937,-14.913 0.0482,1.7844 -1.6497,3.734 0,7.8335 -5.0162,-2.122 -9.325,-5.7416 -12.723,-14.685 -2.0227,5.0868 0,8.3215 0,8.3215 0,0 -11.811,-3.3016 -13.701,-14.195 -2.0742,4.8902 0,7.8316 0,7.8316 0,0 -19.258,-10.048 -51.255,-10.194 -21.422,-1.965 -25.882,-39.65 -23.897,-45.994 0,0 -30.899,-16.285 -91.723,-23.479 -22.809,-2.6982 -44.081,-3.5238 -61.76,-3.5036 z m 71.276,32.521 c -9.2697,0.0699 -19.22,0.41577 -29.674,1.1588 -55.751,3.9628 -112.04,23.477 -112.04,23.477 0,0 115.18,-28.98 211.77,-11.971 h 0.002 l -2.512,-8.1057 c 0,0 -27.373,-4.5594 -67.542,-4.5594 z m 68.293,17.263 c -9.75,-0.0412 -40.02,1.1848 -85.564,15.436 -57.124,17.874 -89.522,43.21 -89.522,43.21 0,0 85.141,-47.539 181.24,-50.24 l -2.7492,-8.3176 c 0,0 -1.1564,-0.0779 -3.4064,-0.0875 z m 62.559,-0.13932 c 26.38,10.723 49.34,24.931 67.165,44.514 l 0.002,0.002 4.2794,-0.27998 c 0,0 -24.518,-29.746 -71.446,-44.236 z m 74.662,61.731 c 0.85796,0.17286 2.4779,3.3567 3.9644,5.6306 0.13054,0.18477 0.26356,0.38112 0.38886,0.53662 0.002,0.0138 0.003,0.0234 0.006,0.037 0.16796,0.23967 0.33693,0.4887 0.49774,0.68826 0.0812,0.47558 0.21641,0.76558 -0.89631,0.53663 -0.0936,-0.48886 -0.25471,-0.62995 -0.25471,-0.62995 0,0 -2.686,-1.5982 -3.5094,-2.7317 -0.82408,-1.1335 -0.96948,-3.1153 -0.56774,-3.8672 0.0978,-0.16967 0.2236,-0.23004 0.37137,-0.20027 z"
         filter="url(#f)"
         opacity="0.5"
         id="path11"
         style="fill:#030303;fill-opacity:1;stroke:#0a0a0a;stroke-width:7.71806;stroke-dasharray:none;stroke-opacity:1;filter:url(#f-6)" />
      <path
         d="m 69.929,127.71 c -29.464,0.0337 -48.949,2.4206 -48.949,2.4206 0,0 107.73,-5.1706 194.03,29.769 2.9338,13.122 11.759,34.976 16.513,45.481 -13.602,9.4041 -28.94,18.249 -31.328,49.612 -2.3877,31.362 24.576,58.947 58.013,59.798 31.751,1.6913 53.688,1.9323 80.277,15.718 25.38,14.034 46.192,56.794 48.251,95.252 2.2244,-28.534 -8.4845,-89.895 -58.453,-108.53 69.826,12.219 75.982,63.973 75.984,63.994 0,0 5.2056,-59.754 -88.677,-73.531 -11.899,-1.7458 -26.947,-3.0899 -42.168,-3.1283 -75.246,0.99487 -77.989,-86.786 -21.288,-91.218 23.499,-1.9389 51.556,10.738 78.986,23.512 -0.10182,3.4068 0.0404,6.4339 2.2787,9.2314 2.2375,2.7966 10.832,5.8474 13.579,7.4233 2.7464,1.5764 11.545,7.1715 16.937,14.189 1.1692,-2.1872 10.933,-8.5432 10.933,-8.5432 0,0 -2.3391,0.0507 -7.781,-1.9832 -5.4426,-2.0339 -11.9,-8.1876 -12.053,-8.5432 -0.15246,-0.35625 -0.25501,-0.91601 1.0169,-1.1705 0.96572,-0.81305 -1.2209,-3.4575 -2.1873,-4.4232 -0.96572,-0.96636 -7.4247,-11.95 -7.5769,-12.204 -0.15245,-0.25447 -0.20376,-0.50931 -0.66105,-0.81465 -1.4244,-0.45805 -7.6799,0.66106 -7.6799,0.66106 0,0 -9.6211,-4.7252 -12.937,-14.913 0.0482,1.7844 -1.6497,3.734 0,7.8335 -5.0162,-2.122 -9.325,-5.7416 -12.723,-14.685 -2.0227,5.0868 0,8.3215 0,8.3215 0,0 -11.811,-3.3016 -13.701,-14.195 -2.0742,4.8902 0,7.8316 0,7.8316 0,0 -19.258,-10.048 -51.255,-10.194 -21.422,-1.965 -25.882,-39.65 -23.897,-45.994 0,0 -30.899,-16.285 -91.723,-23.479 -22.809,-2.6982 -44.081,-3.5238 -61.76,-3.5036 z m 71.276,32.521 c -9.2697,0.0699 -19.22,0.41577 -29.674,1.1588 -55.751,3.9628 -112.04,23.477 -112.04,23.477 0,0 115.18,-28.98 211.77,-11.971 h 0.002 l -2.512,-8.1057 c 0,0 -27.373,-4.5594 -67.542,-4.5594 z m 68.293,17.263 c -9.75,-0.0412 -40.02,1.1848 -85.564,15.436 -57.124,17.874 -89.522,43.21 -89.522,43.21 0,0 85.141,-47.539 181.24,-50.24 l -2.7492,-8.3176 c 0,0 -1.1564,-0.0779 -3.4064,-0.0875 z m 62.559,-0.13932 c 26.38,10.723 49.34,24.931 67.165,44.514 l 0.002,0.002 4.2794,-0.27998 c 0,0 -24.518,-29.746 -71.446,-44.236 z m 74.662,61.731 c 0.85796,0.17286 2.4779,3.3567 3.9644,5.6306 0.13054,0.18477 0.26356,0.38112 0.38886,0.53662 0.002,0.0138 0.003,0.0234 0.006,0.037 0.16796,0.23967 0.33693,0.4887 0.49774,0.68826 0.0812,0.47558 0.21641,0.76558 -0.89631,0.53663 -0.0936,-0.48886 -0.25471,-0.62995 -0.25471,-0.62995 0,0 -2.686,-1.5982 -3.5094,-2.7317 -0.82408,-1.1335 -0.96948,-3.1153 -0.56774,-3.8672 0.0978,-0.16967 0.2236,-0.23004 0.37137,-0.20027 z"
         id="path12"
         style="fill:#030303;fill-opacity:1;stroke:#0a0a0a;stroke-width:7.71806;stroke-dasharray:none;stroke-opacity:1" />
    </g>
  </g>
</svg>
