<?xml version="1.0" encoding="UTF-8" standalone="no"?>
<!-- Created with Inkscape (http://www.inkscape.org/) -->

<svg
   width="171.10625mm"
   height="170.21944mm"
   viewBox="0 0 171.10625 170.21944"
   version="1.1"
   id="svg1"
   xmlns="http://www.w3.org/2000/svg"
   xmlns:svg="http://www.w3.org/2000/svg">
  <defs
     id="defs1" />
  <g
     id="layer1"
     transform="translate(-21.985336,-73.520485)">

<path
   style="fill:#ffffff;fill-opacity:1;fill-rule:evenodd;stroke-width:0.946414"
   d="M 41.202303,80.607242 H 173.87461 c 6.67886,0 12.12927,5.451361 12.12927,12.129261 V 224.52297 c 0,6.67884 -5.45136,12.19833 -12.12927,12.19833 H 41.202303 c -6.678855,0 -12.129261,-5.51949 -12.129261,-12.19833 V 92.736503 c -9.49e-4,-6.6779 5.450406,-12.129261 12.129261,-12.129261 z"
   id="path1575" />






















        <path
   fill-rule="evenodd"
   clip-rule="evenodd"
   fill="#0068C6"
   d="M 41.202303,80.607242 H 173.87461 c 6.67886,0 12.12927,5.451361 12.12927,12.129261 V 224.52297 c 0,6.67884 -5.45136,12.19833 -12.12927,12.19833 H 41.202303 c -6.678855,0 -12.129261,-5.51949 -12.129261,-12.19833 V 92.736503 c -9.49e-4,-6.6779 5.450406,-12.129261 12.129261,-12.129261 z M 39.703181,73.520483 H 175.37374 c 9.74523,0 17.71784,7.972605 17.71784,17.7169 V 226.02209 c 0,9.74523 -7.97261,17.71783 -17.71784,17.71783 H 39.703181 C 29.957939,243.739 21.985334,235.76732 21.985334,226.02209 V 91.237383 c 0,-9.744295 7.972605,-17.7169 17.717847,-17.7169 z"
   id="path1065"
   style="fill:#000000;fill-opacity:1;fill-rule:evenodd;stroke-width:0.946414" />







<path
   fill-rule="evenodd"
   clip-rule="evenodd"
   fill="#0068C6"
   d="M 41.473922,83.264777 H 173.60204 c 5.31413,0 9.67521,4.361086 9.67521,9.744296 V 224.31947 c 0,5.31415 -4.36013,9.67523 -9.67521,9.67523 H 41.473922 c -5.314121,0 -9.675204,-4.36016 -9.675204,-9.67523 V 93.009073 c 0,-5.38321 4.361083,-9.744296 9.675204,-9.744296 z"
   id="path1067"
   style="fill:#000000;fill-opacity:1;fill-rule:evenodd;stroke-width:0.946414" />










<path
   fill-rule="evenodd"
   clip-rule="evenodd"
   fill="#FFFFFF"
   d="m 93.932264,93.086693 22.808696,-1.66013 c 0,13.714097 0,27.355997 0,40.997897 9.09462,-13.71408 19.19974,-27.35598 30.60307,-40.564817 l 24.46884,6.20743 c -10.97027,12.198317 -22.15908,25.768037 -31.10834,39.337797 8.58937,14.43589 18.04487,27.64573 30.67627,42.65803 l -23.60167,7.00141 c -13.20884,-14.79679 -21.14858,-29.01612 -31.03817,-44.31819 v 40.63705 l -22.808696,2.88815 z"
   id="path1084"
   style="fill:#ffffff;fill-rule:evenodd;stroke-width:0.946414" />







<path
   fill-rule="evenodd"
   clip-rule="evenodd"
   fill="#FFFFFF"
   d="m 116.95851,205.83194 c 13.35319,-2.81599 9.96076,-6.85704 20.85886,-0.50524 l 7.07457,4.9794 c 1.30024,0.64962 2.52629,1.80545 3.75334,0.57744 2.67064,-2.5263 5.2691,-5.12378 7.93973,-7.65004 1.15488,-1.22805 0,-2.60048 -0.57742,-3.53779 h -0.0732 l -5.12374,-7.28912 -3.39343,1.22807 c -0.86515,0.57743 -2.02102,0.28759 -3.03053,-1.08269 l -7.50666,-9.81742 c -6.92923,9.59987 -18.11705,15.80729 -30.82063,15.80729 -20.931026,0 -37.965371,-17.03234 -37.965371,-37.96539 0,-14.86896 8.589355,-27.78906 21.075395,-33.99649 v -8.73371 c -0.43308,0.2164 -0.86515,0.36088 -1.22805,0.50524 -4.907203,2.02102 -5.196926,2.95937 -13.208842,-1.66012 l -7.07258,-5.05255 c -1.300234,-0.57744 -2.527285,-1.80449 -3.753331,-0.57744 -2.670639,2.59844 -5.269099,5.19693 -7.939736,7.79536 -1.154871,1.15488 0.07218,2.59849 0.577436,3.53681 l 5.411451,7.65103 3.970871,5.62999 c 0.577432,0.79395 0.792972,0.86613 0.505256,1.44357 -0.359896,0.57744 -0.649616,1.08269 -1.010511,1.66012 -5.269102,9.09465 -1.58795,9.8164 -12.847942,12.77577 l -8.589351,1.44361 c -1.298228,0.43306 -3.030535,0.43306 -3.103717,2.23755 0,3.68114 -0.07218,7.3623 -0.07218,11.04344 -0.07218,1.66015 1.805489,1.80548 2.88818,2.09322 l 9.167793,1.66013 6.857043,1.22805 c 0.938335,0.14523 1.152868,0 1.370408,0.72076 2.816,12.19834 6.49615,9.31217 0.359897,19.92256 l -4.979383,7.14474 c -0.649616,1.22805 -1.805488,2.45511 -0.577436,3.68116 2.598457,2.67063 5.123736,5.27111 7.722198,7.94174 1.154871,1.15287 2.59846,-0.0722 3.537796,-0.57744 l 7.650015,-5.41343 5.702177,-3.89872 c 0.794974,-0.64958 0.867155,-0.86514 1.444587,-0.50526 11.403351,7.14679 11.836421,2.02105 15.156681,14.07601 l 1.58794,8.58735 c 0.43308,1.30021 0.50526,2.96037 2.237556,3.03252 3.68115,0 7.43449,0 11.11564,0 1.66013,0 1.80548,-1.87764 2.02102,-2.96036 l 1.58795,-9.23794 1.08269,-6.7869 c 0.0722,-0.64962 0.0722,-0.94033 0.21755,-1.15488 z m 13.78627,-5.77435 c -0.0722,0.0701 -0.14536,0.0701 -0.21755,0.0701 0.0722,0 0.0722,-0.0701 0.14537,-0.0701 z m -13.06648,5.48465 c -0.21555,0.0723 -0.50526,0.14523 -0.72079,0.28975 0.14336,-0.14523 0.36089,-0.21749 0.72079,-0.28975 z"
   id="path1086"
   style="fill:#ffffff;fill-rule:evenodd;stroke-width:0.946414" />







<path
   fill-rule="evenodd"
   clip-rule="evenodd"
   fill="#FFFFFF"
   d="m 106.34813,195.79903 c 11.98079,0 22.51899,-6.06406 28.87078,-15.30404 l -0.43308,-0.7208 c -7.43449,8.22743 -15.73411,13.56873 -28.50988,13.85846 -15.879466,0.28759 -31.975482,-13.93064 -32.048664,-32.55396 -0.143366,-11.98177 5.413459,-20.06587 14.868968,-25.84023 v -5.05255 c -10.61038,5.9909 -17.827322,17.46743 -17.827322,30.5329 0,19.27089 15.734112,35.08022 35.079198,35.08022 z"
   id="path1088"
   style="fill:#ffffff;fill-rule:evenodd;stroke-width:0.946414" />








</g>
</svg>
