<?xml version="1.0" encoding="UTF-8" standalone="no"?>
<!-- Created with Inkscape (http://www.inkscape.org/) -->

<svg
   width="175.93742mm"
   height="175.02562mm"
   viewBox="0 0 175.93742 175.02562"
   version="1.1"
   id="svg1"
   xmlns="http://www.w3.org/2000/svg"
   xmlns:svg="http://www.w3.org/2000/svg">
  <defs
     id="defs1">
    <filter
       style="color-interpolation-filters:sRGB"
       id="filter2"
       x="0"
       y="0"
       width="1"
       height="1">
      <feColorMatrix
         type="hueRotate"
         values="180"
         result="color1"
         id="feColorMatrix1" />
      <feColorMatrix
         values="-1 0 0 0 1 0 -1 0 0 1 0 0 -1 0 1 -0.21 -0.72 -0.07 1.83155 0 "
         result="color2"
         id="feColorMatrix2" />
    </filter>
    <filter
       style="color-interpolation-filters:sRGB"
       id="filter4"
       x="0"
       y="0"
       width="1"
       height="1">
      <feColorMatrix
         type="hueRotate"
         values="180"
         result="color1"
         id="feColorMatrix3" />
      <feColorMatrix
         values="-1 0 0 0 1 0 -1 0 0 1 0 0 -1 0 1 -0.21 -0.72 -0.07 1.83155 0 "
         result="color2"
         id="feColorMatrix4" />
    </filter>
    <filter
       style="color-interpolation-filters:sRGB"
       id="filter6"
       x="0"
       y="0"
       width="1"
       height="1">
      <feColorMatrix
         type="hueRotate"
         values="180"
         result="color1"
         id="feColorMatrix5" />
      <feColorMatrix
         values="-1 0 0 0 1 0 -1 0 0 1 0 0 -1 0 1 -0.21 -0.72 -0.07 1.83155 0 "
         result="color2"
         id="feColorMatrix6" />
    </filter>
    <filter
       style="color-interpolation-filters:sRGB"
       id="filter8"
       x="0"
       y="0"
       width="1"
       height="1">
      <feColorMatrix
         type="hueRotate"
         values="180"
         result="color1"
         id="feColorMatrix7" />
      <feColorMatrix
         values="-1 0 0 0 1 0 -1 0 0 1 0 0 -1 0 1 -0.21 -0.72 -0.07 1.83155 0 "
         result="color2"
         id="feColorMatrix8" />
    </filter>
    <filter
       style="color-interpolation-filters:sRGB"
       id="filter10"
       x="0"
       y="0"
       width="1"
       height="1">
      <feColorMatrix
         type="hueRotate"
         values="180"
         result="color1"
         id="feColorMatrix9" />
      <feColorMatrix
         values="-1 0 0 0 1 0 -1 0 0 1 0 0 -1 0 1 -0.21 -0.72 -0.07 1.83155 0 "
         result="color2"
         id="feColorMatrix10" />
    </filter>
    <filter
       style="color-interpolation-filters:sRGB"
       id="filter12"
       x="0"
       y="0"
       width="1"
       height="1">
      <feColorMatrix
         type="hueRotate"
         values="180"
         result="color1"
         id="feColorMatrix11" />
      <feColorMatrix
         values="-1 0 0 0 1 0 -1 0 0 1 0 0 -1 0 1 -0.21 -0.72 -0.07 1.83155 0 "
         result="color2"
         id="feColorMatrix12" />
    </filter>
  </defs>
  <g
     id="layer1"
     transform="translate(-20.829892,-76.933396)">

<path
   style="fill:#ffffff;fill-opacity:1;fill-rule:evenodd;stroke-width:0.973137;filter:url(#filter12)"
   d="M 40.589453,84.220248 H 177.00777 c 6.86742,0 12.47173,5.605273 12.47173,12.471733 V 232.19943 c 0,6.86745 -5.60528,12.54279 -12.47173,12.54279 H 40.589453 c -6.867434,0 -12.471732,-5.67534 -12.471732,-12.54279 V 96.691981 c -9.65e-4,-6.86646 5.604298,-12.471733 12.471732,-12.471733 z"
   id="path1575" />






















        <path
   fill-rule="evenodd"
   clip-rule="evenodd"
   fill="#0068C6"
   d="M 40.589453,84.220248 H 177.00777 c 6.86742,0 12.47173,5.605273 12.47173,12.471733 V 232.19943 c 0,6.86745 -5.60528,12.54279 -12.47173,12.54279 H 40.589453 c -6.867434,0 -12.471732,-5.67534 -12.471732,-12.54279 V 96.691981 c -9.65e-4,-6.86646 5.604298,-12.471733 12.471732,-12.471733 z M 39.048002,76.933394 H 178.54921 c 10.02039,0 18.21811,8.197711 18.21811,18.217139 V 233.74088 c 0,10.02041 -8.19772,18.21813 -18.21811,18.21813 H 39.048002 c -10.020399,-9.9e-4 -18.21811,-8.19772 -18.21811,-18.21813 V 95.150533 c 0,-10.019428 8.197711,-18.217139 18.21811,-18.217139 z"
   id="path1065"
   style="fill:#000000;fill-opacity:1;fill-rule:evenodd;stroke-width:0.973137;filter:url(#filter10)" />







<path
   fill-rule="evenodd"
   clip-rule="evenodd"
   fill="#0068C6"
   d="M 40.868741,86.952819 H 176.7275 c 5.46417,0 9.94838,4.484218 9.94838,10.019426 V 231.99023 c 0,5.46414 -4.48324,9.94836 -9.94838,9.94836 H 40.868741 c -5.464166,0 -9.948384,-4.48322 -9.948384,-9.94836 V 96.972245 c 0,-5.535208 4.484218,-10.019426 9.948384,-10.019426 z"
   id="path1067"
   style="fill:#000000;fill-opacity:1;fill-rule:evenodd;stroke-width:0.973137;filter:url(#filter8)" />










<path
   fill-rule="evenodd"
   clip-rule="evenodd"
   fill="#FFFFFF"
   d="m 94.808248,97.052055 23.452692,-1.706997 c 0,14.101302 0,28.128402 0,42.155492 9.3514,-14.10131 19.74184,-28.1284 31.46715,-41.71019 l 25.15972,6.38271 c -11.28002,12.54274 -22.78475,26.49561 -31.98668,40.44848 8.83187,14.84349 18.55435,28.42631 31.5424,43.86251 l -24.26806,7.19906 c -13.58179,-15.21456 -21.7457,-29.83539 -31.91453,-45.56947 v 41.7844 l -23.452692,2.96972 z"
   id="path1084"
   style="fill:#ffffff;fill-rule:evenodd;stroke-width:0.973137;filter:url(#filter6)" />







<path
   fill-rule="evenodd"
   clip-rule="evenodd"
   fill="#FFFFFF"
   d="m 118.48463,212.9807 c 13.73022,-2.8955 10.242,-7.05065 21.44781,-0.51952 l 7.27433,5.11997 c 1.33694,0.66796 2.59761,1.85647 3.85931,0.59373 2.74605,-2.59758 5.41787,-5.2684 8.16391,-7.86603 1.18748,-1.26269 0,-2.67386 -0.59374,-3.63768 h -0.0752 l -5.26841,-7.49492 -3.48924,1.26273 c -0.88957,0.59374 -2.07809,0.29571 -3.11611,-1.11326 l -7.7186,-10.0946 c -7.12488,9.87091 -18.62859,16.25359 -31.69085,16.25359 -21.522012,0 -39.037323,-17.51323 -39.037323,-39.0373 0,-15.28878 8.831875,-28.57371 21.670457,-34.95641 v -8.98031 c -0.445306,0.22267 -0.889579,0.37109 -1.262727,0.51952 -5.045753,2.07809 -5.343656,3.04292 -13.581788,-1.70699 L 67.794184,116.128 c -1.336945,-0.59374 -2.598643,-1.85544 -3.859307,-0.59374 -2.746043,2.67183 -5.417871,5.34366 -8.163914,8.01548 -1.187479,1.18747 0.07422,2.67183 0.59374,3.63665 l 5.564244,7.86705 4.082989,5.78895 c 0.593735,0.81641 0.815361,0.89063 0.519521,1.48437 -0.370058,0.59374 -0.667958,1.11325 -1.039042,1.707 -5.417875,9.35138 -1.632787,10.09357 -13.210705,13.13649 l -8.831872,1.48432 c -1.334882,0.44531 -3.116101,0.44531 -3.191349,2.30074 0,3.78511 -0.07422,7.57017 -0.07422,11.35528 -0.07422,1.70699 1.856466,1.85647 2.969728,2.1523 l 9.426644,1.70698 7.050653,1.26274 c 0.964828,0.14933 1.185419,0 1.409101,0.74115 2.895509,12.54276 6.679568,9.57509 0.370058,20.48503 l -5.119975,7.34651 c -0.667958,1.26274 -1.856467,2.52439 -0.593739,3.78506 2.671824,2.74607 5.268404,5.41994 7.940232,8.16601 1.187479,1.18542 2.671828,-0.0743 3.637686,-0.59373 l 7.866014,-5.56633 5.863178,-4.00876 c 0.81742,-0.66796 0.891638,-0.8896 1.485375,-0.51951 11.72532,7.34853 12.170622,2.07807 15.58463,14.4734 l 1.63278,8.82982 c 0.445296,1.33694 0.519516,3.04394 2.300736,3.11816 3.78508,0 7.64439,0 11.42948,0 1.707,0 1.85646,-1.93069 2.07809,-3.04394 l 1.63278,-9.49881 1.11326,-6.97849 c 0.0743,-0.66796 0.0743,-0.96691 0.2237,-1.18748 z m 14.17553,-5.93739 c -0.0743,0.0721 -0.14947,0.0721 -0.22369,0.0721 0.0743,0 0.0743,-0.0721 0.14947,-0.0721 z m -13.43542,5.63947 c -0.22163,0.0742 -0.51952,0.14933 -0.74114,0.29792 0.14741,-0.14933 0.37109,-0.22362 0.74114,-0.29792 z"
   id="path1086"
   style="fill:#ffffff;fill-rule:evenodd;stroke-width:0.973137;filter:url(#filter4)" />







<path
   fill-rule="evenodd"
   clip-rule="evenodd"
   fill="#FFFFFF"
   d="m 107.57467,202.66446 c 12.31906,0 23.1548,-6.23527 29.68594,-15.73614 l -0.44531,-0.74115 c -7.64439,8.45977 -16.17836,13.95183 -29.31485,14.24975 C 91.172627,200.73263 74.622143,186.11295 74.546895,166.96385 74.39948,154.64376 80.113203,146.33141 89.835684,140.394 v -5.19522 c -10.909961,6.16004 -18.330671,17.96061 -18.330671,31.39498 0,19.81504 16.178364,36.0707 36.069657,36.0707 z"
   id="path1088"
   style="fill:#ffffff;fill-rule:evenodd;stroke-width:0.973137;filter:url(#filter2)" />








</g>
</svg>
