<?xml version="1.0" encoding="UTF-8" standalone="no"?>
<!-- Created with Inkscape (http://www.inkscape.org/) -->

<svg
   width="15.371094mm"
   height="14.039188mm"
   viewBox="0 0 15.371094 14.039188"
   version="1.1"
   id="svg1"
   xmlns="http://www.w3.org/2000/svg"
   xmlns:svg="http://www.w3.org/2000/svg">
  <defs
     id="defs1" />
  <g
     id="layer1"
     transform="translate(-55.14058,-96.398442)">
    <g
       id="text1">
      <path
         style="-inkscape-font-specification:'URW Bookman Light'"
         d="m 63.788659,96.931652 h -1.77165 L 58.74041,105.3327 c -1.27635,3.25755 -1.58115,3.6957 -2.8575,3.94335 l -0.20955,0.0381 v 0.59055 h 5.105399 v -0.59055 c -0.6858,-0.0952 -1.00965,-0.17145 -1.2192,-0.3048 -0.28575,-0.1905 -0.476249,-0.5334 -0.476249,-0.8763 0,-0.28575 0.133349,-0.8001 0.361949,-1.4097 l 0.6096,-1.6383 h 4.9149 l 0.9525,2.45745 c 0.13335,0.3429 0.20955,0.66675 0.20955,0.81915 0,0.5334 -0.381,0.8001 -1.35255,0.93345 l -0.1524,0.019 v 0.59055 h 5.35305 v -0.59055 c -1.23825,-0.1905 -1.46685,-0.40005 -2.15265,-2.1717 z m -3.44805,7.334248 2.11455,-5.714998 2.1717,5.714998 z"
         id="path1" />
      <path
         style="-inkscape-font-specification:'URW Bookman Light';fill:#090909"
         d="m 61.652344,96.398437 -3.408203,8.740233 c -0.635881,1.62292 -1.037675,2.52858 -1.365235,2.98242 -0.325995,0.45168 -0.510143,0.51773 -1.091797,0.63086 h -0.0039 c -0.0012,2.4e-4 -7.14e-4,0.002 -0.002,0.002 l -0.640625,0.11523 v 1.56836 h 6.169922 v -1.58789 l -0.458985,-0.0625 c -0.664825,-0.0923 -0.918356,-0.17516 -0.998046,-0.22461 -0.129675,-0.0887 -0.238282,-0.28529 -0.238282,-0.42969 0,-0.12008 0.110198,-0.64151 0.328125,-1.22265 l 0.482422,-1.29297 h 4.179688 l 0.820312,2.11719 v 0.002 c 0.117137,0.30121 0.173828,0.6501 0.173828,0.625 0,0.13991 0.01257,0.11419 -0.08203,0.17969 -0.09461,0.0655 -0.362862,0.16511 -0.810547,0.22656 l -0.613281,0.0762 v 1.59375 h 6.417969 v -1.58008 l -0.451172,-0.0703 c -0.59499,-0.0915 -0.803083,-0.1566 -0.988281,-0.3418 -0.185198,-0.1852 -0.409786,-0.62225 -0.748047,-1.49609 h -0.002 L 64.150391,96.398437 Z m 0.960937,1.066407 h 0.8125 l 3.904297,9.869136 c 0.347539,0.89781 0.58012,1.45317 0.990234,1.86329 0.112175,0.11217 0.302133,0.10002 0.431641,0.17578 h -2.607422 c 0.314354,-0.23962 0.519531,-0.63418 0.519531,-1.01172 0,-0.3299 -0.09653,-0.62713 -0.246093,-1.01172 l -1.083985,-2.79688 h -0.0293 z m -0.15039,2.603516 1.392578,3.66602 h -2.75 z m -1.853516,1.93945 -1.033203,2.79102 h 0.01758 l -0.648438,1.73828 h 0.002 c -0.239273,0.63806 -0.396485,1.14429 -0.396485,1.5957 0,0.50741 0.275716,0.94311 0.669922,1.24024 H 56.69536 c 0.365285,-0.17076 0.772834,-0.24651 1.048829,-0.62891 0.463014,-0.64153 0.851718,-1.58217 1.492187,-3.2168 z m -4.552734,7.74805 0.02539,0.0254 -0.0957,0.0156 c 0.02729,-0.005 0.04328,-0.0352 0.07031,-0.041 z m 8.966796,0.0117 0.0293,0.0293 -0.199218,0.0254 c 0.07001,-0.01 0.103918,-0.0438 0.169921,-0.0547 z"
         id="path2" />
    </g>
  </g>
</svg>
