<?xml version="1.0" encoding="UTF-8" standalone="no"?>
<!-- Created with Inkscape (http://www.inkscape.org/) -->

<svg
   width="68.200188"
   height="69.990028"
   viewBox="0 0 68.200188 69.990028"
   version="1.1"
   id="svg1"
   xmlns="http://www.w3.org/2000/svg"
   xmlns:svg="http://www.w3.org/2000/svg">
  <defs
     id="defs1" />
  <g
     id="layer1"
     transform="translate(-24.310696,-26.671244)">
    <path
       id="arrow"
       style="fill:none;fill-opacity:1;stroke:#ffffff;stroke-opacity:1"
       transform="matrix(0.81546303,0,0,0.93485385,16.654763,39.404457)"
       d="m 51.611689,-13.120538 c -0.50133,-1.84e-4 -1.114817,2.238734 -1.772382,5.6200299 1.172173,0.012953 2.343846,0.026707 3.516024,0.039695 -0.641391,-3.4043509 -1.243437,-5.6595399 -1.743642,-5.6597249 z m -2.064586,7.199488 c -0.47433,2.6287173 -0.965259,5.8203255 -1.453833,9.1550072 8.385895,0.1520357 -5.164266,-0.1153431 6.96259,0.1274431 -0.474371,-3.36630827 -0.952884,-6.5876955 -1.415511,-9.2385764 -1.364422,-0.015653 -2.728761,-0.029984 -4.093246,-0.043874 z M 47.858549,4.819683 c -0.445372,3.0964357 -0.82758,5.92846 -1.243063,8.966977 3.313464,0.272231 6.628507,0.525165 9.944504,0.773015 C 56.135468,11.326389 55.739297,8.2718951 55.281,4.9575722 40.964384,4.6712042 57.185471,4.9895392 47.858549,4.819683 Z M 46.395136,15.368207 C 45.895375,19.022481 45.42553,22.425515 45.025132,25.0497 H 57.987476 C 57.624033,22.562044 57.215282,19.533347 56.773155,16.170471 53.312562,15.913336 49.852921,15.65268 46.395136,15.368207 Z m -1.631071,11.269308 c -0.286565,1.738659 -0.538435,3.070465 -0.699373,3.342769 -0.324757,0.549486 -3.777032,3.30626 -8.014043,6.635395 -0.01474,0.747715 -0.04437,1.493781 -0.06467,2.233387 -0.204537,3.737174 -0.619543,7.45963 -1.125703,11.173204 8.37146,-3.397976 15.842198,-6.470205 16.777757,-6.455722 0.95444,0.01478 8.842341,3.23092 17.235224,6.59779 0.08237,-1.254124 0.161366,-2.5081 0.234721,-3.762704 0.143334,-2.511639 0.288892,-5.024053 0.371242,-7.537943 C 64.058727,34.69737 59.372138,31.0739 58.983843,30.419022 58.80948,30.124951 58.542134,28.645933 58.229383,26.637515 Z M 34.189647,38.076051 c -2.006844,1.571292 -3.805211,2.984683 -6.014125,4.717482 -0.257542,2.011133 -0.585297,4.016776 -0.888587,6.014894 -0.246778,1.523137 -0.50053,3.045372 -0.75925,4.567058 2.102726,-0.833841 4.255042,-1.70845 6.387763,-2.571843 0.560531,-3.985518 1.02813,-7.979671 1.250248,-11.992182 0.0067,-0.238948 0.01536,-0.490188 0.02395,-0.735409 z M 71.254,40.230048 c -0.08606,2.084737 -0.206893,4.167801 -0.325735,6.250977 -0.08565,1.465012 -0.179783,2.929306 -0.277833,4.393651 1.414979,0.565671 2.629787,1.059697 4.038158,1.614975 0.11657,-1.288652 0.233416,-2.576653 0.354476,-3.865076 0.154916,-1.705132 0.312175,-3.410734 0.464652,-5.116525 C 73.965046,42.316755 72.739145,41.370899 71.254,40.230048 Z m -45.135879,4.190996 c -1.645922,1.296794 -3.313633,2.604607 -4.876447,3.858808 -0.444179,2.359607 -0.969522,4.707329 -1.48497,7.055331 -0.0564,0.244765 -0.117668,0.4887 -0.174843,0.73332 1.553873,-0.580778 3.23251,-1.227165 4.967462,-1.907468 0.317438,-1.852119 0.631114,-3.704879 0.931698,-5.559442 0.211089,-1.389826 0.432968,-2.784206 0.6371,-4.180549 z m 51.094917,0.422024 c -0.119178,1.302273 -0.236192,2.60489 -0.354477,3.906861 -0.138688,1.476004 -0.274235,2.952837 -0.407169,4.429168 2.362544,0.923246 4.670221,1.813283 6.732659,2.569753 -0.08366,-2.100976 -0.117521,-4.203211 -0.08862,-6.305297 -1.835375,-1.465044 -3.871148,-3.040347 -5.882394,-4.600485 z M 19.042961,50.04943 c -5.431627,4.422237 -9.5077166,8.01834 -9.1205851,8.689109 0.2942011,0.509751 3.3449621,-0.383056 7.6260351,-1.92627 0.140694,-0.591915 0.282471,-1.183066 0.419145,-1.775846 0.364658,-1.661035 0.733047,-3.321757 1.075405,-4.986993 z m 65.86078,0.850317 c 9.6e-5,1.837391 0.04921,3.675551 0.131731,5.511389 4.182828,1.48052 7.163481,2.330185 7.455983,1.81972 0.352116,-0.614502 -2.952217,-3.56991 -7.587714,-7.331109 z" />
  </g>
</svg>
