<?xml version="1.0" encoding="UTF-8" standalone="no"?>
<!-- Created with Inkscape (http://www.inkscape.org/) -->

<svg
   width="12.170832mm"
   height="8.5489779mm"
   viewBox="0 0 12.170832 8.5489779"
   version="1.1"
   id="svg1"
   xmlns="http://www.w3.org/2000/svg"
   xmlns:svg="http://www.w3.org/2000/svg">
  <defs
     id="defs1" />
  <g
     id="layer1"
     transform="translate(-88.370829,-80.697918)">
    <g
       stroke-width="2"
       fill="none"
       fill-rule="evenodd"
       id="g2"
       transform="matrix(0.26458333,0,0,0.26458333,88.370833,80.697917)"
       style="stroke:#f9f9f9">
      <path
         d="m 23.488889,20.543316 c -2.048423,-2.124579 -4.413859,-4.876649 -7.005688,-4.876649 -2.611006,0 -4.727645,1.969947 -4.727645,4.4 0,2.430053 2.116639,4.4 4.727645,4.4 2.351524,0 3.501346,-1.454104 4.159714,-2.154194"
         id="Oval-1"
         stroke-linecap="round"
         style="stroke:#f9f9f9" />
      <path
         d="m 22.511111,19.590017 c 2.048423,2.124579 4.413859,4.87665 7.005688,4.87665 2.611006,0 4.727645,-1.969947 4.727645,-4.4 0,-2.430053 -2.116639,-4.4 -4.727645,-4.4 -2.351524,0 -3.501346,1.454104 -4.159714,2.154193"
         id="Oval-1-Copy"
         stroke-linecap="round"
         style="stroke:#f9f9f9" />
      <path
         d="m 45,22.733146 c 0,-3.5832 -2.204955,-6.653553 -5.3372,-7.949614 0.01465,-0.258885 0.03759,-0.516128 0.03759,-0.779934 C 39.700393,6.822433 33.841288,1 26.611593,1 21.398564,1 16.910212,4.0340963 14.805179,8.4152762 13.78285,7.6287801 12.503719,7.1554716 11.113437,7.1554716 c -3.3351805,0 -6.038932,2.6861284 -6.038932,5.9989594 0,0.621618 0.094877,1.223548 0.2732394,1.787417 C 2.7486343,16.478747 1,19.286771 1,22.510519 1,27.32875 4.8963054,31.236786 9.7280367,31.31094 l 26.6060933,1e-6 C 41.120131,31.340635 45,27.487066 45,22.733146 Z"
         stroke-linejoin="round"
         id="path1"
         style="stroke:#f9f9f9" />
    </g>
  </g>
</svg>
