<?xml version="1.0" encoding="UTF-8"?>
<svg id="Layer_1" data-name="Layer 1" xmlns="http://www.w3.org/2000/svg" xmlns:xlink="http://www.w3.org/1999/xlink" viewBox="0 0 1080 1350">
  <defs>
    <style>
      .cls-1 {
        fill: #d54185;
      }

      .cls-2 {
        fill: #9b97a5;
      }

      .cls-3 {
        fill: #c8c1bf;
      }

      .cls-4 {
        fill: #6d6c8a;
      }

      .cls-5 {
        fill: #f6ebd9;
      }

      .cls-6 {
        fill: #f4ac00;
      }

      .cls-7 {
        fill: #fe522f;
      }

      .cls-8 {
        fill: #fe5a5f;
      }

      .cls-9 {
        fill: #1d57f6;
      }

      .cls-10 {
        fill: #0b4f94;
      }

      .cls-11 {
        fill: #f5c557;
      }

      .cls-12 {
        fill: #fe4a00;
      }

      .cls-13 {
        fill: #f062ca;
      }

      .cls-14 {
        fill: #404270;
      }

      .cls-15 {
        fill: #0c83f3;
      }

      .cls-16 {
        fill: #f6deae;
      }

      .cls-17 {
        fill: #0486d2;
      }

      .cls-18 {
        fill: #c83163;
      }

      .cls-19 {
        fill: #0e3375;
      }

      .cls-20 {
        fill: #1766f5;
      }

      .cls-21 {
        fill: #fd73ed;
      }

      .cls-22 {
        fill: #121856;
      }

      .cls-23 {
        fill: #fd638e;
      }

      .cls-24 {
        fill: #e352a8;
      }

      .cls-25 {
        fill: #fc5e00;
      }

      .cls-26 {
        fill: #076ab3;
      }

      .cls-27 {
        fill: #bb2040;
      }

      .cls-28 {
        clip-path: url(#clippath);
      }

      .cls-29 {
        fill: #1175f4;
      }

      .cls-30 {
        fill: #f4b92b;
      }

      .cls-31 {
        fill: none;
      }

      .cls-32 {
        fill: #fa7100;
      }

      .cls-33 {
        fill: #f5d282;
      }

      .cls-34 {
        fill: #00a1f1;
      }

      .cls-35 {
        fill: #fd6bbe;
      }

      .cls-36 {
        fill: #0692f2;
      }

      .cls-37 {
        fill: #f69800;
      }

      .cls-38 {
        fill: #f88500;
      }
    </style>
    <clipPath id="clippath">
      <rect class="cls-31" width="1080" height="1350"/>
    </clipPath>
  </defs>
  <g class="cls-28">
    <g>
      <rect class="cls-9" x="-8" y="-25" width="1103" height="38.98"/>
      <rect class="cls-20" x="-8" y="13.63" width="1103" height="38.98"/>
      <rect class="cls-29" x="-8" y="52.26" width="1103" height="38.98"/>
      <rect class="cls-15" x="-8" y="90.89" width="1103" height="38.98"/>
      <rect class="cls-36" x="-8" y="129.52" width="1103" height="38.98"/>
      <rect class="cls-34" x="-8" y="168.15" width="1103" height="38.98"/>
      <rect class="cls-17" x="-8" y="206.77" width="1103" height="38.98"/>
      <rect class="cls-26" x="-8" y="245.4" width="1103" height="38.98"/>
      <rect class="cls-10" x="-8" y="284.03" width="1103" height="38.98"/>
      <rect class="cls-19" x="-8" y="322.66" width="1103" height="38.98"/>
      <rect class="cls-22" x="-8" y="361.29" width="1103" height="38.98"/>
      <rect class="cls-14" x="-8" y="399.92" width="1103" height="38.98"/>
      <rect class="cls-4" x="-8" y="438.55" width="1103" height="38.98"/>
      <rect class="cls-2" x="-8" y="477.18" width="1103" height="38.98"/>
      <rect class="cls-3" x="-8" y="515.81" width="1103" height="38.98"/>
      <rect class="cls-5" x="-8" y="554.44" width="1103" height="38.98"/>
      <rect class="cls-16" x="-8" y="593.06" width="1103" height="38.98"/>
      <rect class="cls-33" x="-8" y="631.69" width="1103" height="38.98"/>
      <rect class="cls-11" x="-8" y="670.32" width="1103" height="38.98"/>
      <rect class="cls-30" x="-8" y="708.95" width="1103" height="38.98"/>
      <rect class="cls-6" x="-8" y="747.58" width="1103" height="38.98"/>
      <rect class="cls-37" x="-8" y="786.21" width="1103" height="38.98"/>
      <rect class="cls-38" x="-8" y="824.84" width="1103" height="38.98"/>
      <rect class="cls-32" x="-8" y="863.47" width="1103" height="38.98"/>
      <rect class="cls-25" x="-8" y="902.1" width="1103" height="38.98"/>
      <rect class="cls-12" x="-8" y="940.73" width="1103" height="38.98"/>
      <rect class="cls-7" x="-8" y="979.36" width="1103" height="38.98"/>
      <rect class="cls-8" x="-8" y="1017.98" width="1103" height="38.98"/>
      <rect class="cls-23" x="-8" y="1056.61" width="1103" height="38.98"/>
      <rect class="cls-35" x="-8" y="1095.24" width="1103" height="38.98"/>
      <rect class="cls-21" x="-8" y="1133.87" width="1103" height="38.98"/>
      <rect class="cls-13" x="-8" y="1172.5" width="1103" height="38.98"/>
      <rect class="cls-24" x="-8" y="1211.13" width="1103" height="38.98"/>
      <rect class="cls-1" x="-8" y="1249.76" width="1103" height="38.98"/>
      <rect class="cls-18" x="-8" y="1288.39" width="1103" height="38.98"/>
      <rect class="cls-27" x="-8" y="1327.02" width="1103" height="38.98"/>
    </g>
  </g>
</svg>