<?xml version="1.0" encoding="UTF-8" standalone="no"?>
<!-- Created with Inkscape (http://www.inkscape.org/) -->

<svg
   width="121.08512mm"
   height="119.72449mm"
   viewBox="0 0 121.08512 119.72449"
   version="1.1"
   id="svg1"
   xmlns="http://www.w3.org/2000/svg"
   xmlns:svg="http://www.w3.org/2000/svg">
  <defs
     id="defs1">
    <filter
       style="color-interpolation-filters:sRGB"
       id="filter6"
       x="0"
       y="0"
       width="1"
       height="1">
      <feColorMatrix
         values="-5.89905 -5.07886 -5.53496 9.11672 0 -5.89905 -5.07886 -5.53496 9.11672 0 -5.89905 -5.07886 -5.53496 9.11672 0 0 0 0 1 0 "
         id="feColorMatrix6"
         result="fbSourceGraphic" />
      <feColorMatrix
         result="fbSourceGraphicAlpha"
         in="fbSourceGraphic"
         values="0 0 0 -1 0 0 0 0 -1 0 0 0 0 -1 0 0 0 0 1 0"
         id="feColorMatrix1" />
      <feColorMatrix
         id="feColorMatrix2"
         type="hueRotate"
         values="180"
         result="color1"
         in="fbSourceGraphic" />
      <feColorMatrix
         id="feColorMatrix3"
         values="-1 0 0 0 1 0 -1 0 0 1 0 0 -1 0 1 -0.21 -0.72 -0.07 1.44748 0 "
         result="color2" />
    </filter>
  </defs>
  <g
     id="layer1"
     transform="translate(-45.419836,-84.804635)">
    <path
       clip-rule="evenodd"
       d="M 49.960518,84.804637 H 161.96418 c 2.50776,0 4.54078,2.01015 4.54078,4.48969 V 200.03942 c 0,2.47971 -2.03302,4.48969 -4.54078,4.48969 H 49.960518 c -2.507747,0 -4.540681,-2.00998 -4.540681,-4.48969 V 89.294327 c 0,-2.47954 2.032934,-4.48969 4.540681,-4.48969 z M 112.73029,148.5 v -9.81929 H 69.636823 V 148.5 H 85.02192 v 43.72054 H 97.26971 V 148.5 Z m 4.88291,42.56614 c 1.97499,0.9955 4.311,1.74248 7.00756,2.24023 2.69702,0.49775 5.53909,0.74663 8.52713,0.74663 2.91208,0 5.67817,-0.27324 8.29922,-0.82147 2.62057,-0.54822 4.91836,-1.44974 6.89335,-2.70718 1.975,-1.25656 3.53878,-2.89966 4.6909,-4.92844 1.15214,-2.02894 1.72821,-4.53667 1.72821,-7.52371 0,-2.16574 -0.32929,-4.06329 -0.98768,-5.69386 -0.65804,-1.63075 -1.60759,-3.08067 -2.84851,-4.35011 -1.24055,-1.26874 -2.72834,-2.40835 -4.46296,-3.41639 -1.73464,-1.00768 -3.69027,-1.9602 -5.86788,-2.85633 -1.59559,-0.64742 -3.02626,-1.2757 -4.29212,-1.88554 -1.26631,-0.60913 -2.34244,-1.23219 -3.22841,-1.86691 -0.88638,-0.63525 -1.56983,-1.30704 -2.05098,-2.01642 -0.48122,-0.70834 -0.72156,-1.5124 -0.72156,-2.40835 0,-0.82147 0.21511,-1.56114 0.64568,-2.22127 0.43057,-0.6596 1.03797,-1.22697 1.82304,-1.69862 0.78509,-0.47338 1.74706,-0.84061 2.88674,-1.10167 1.13926,-0.26105 2.40553,-0.39158 3.79802,-0.39158 1.01308,0 2.08274,0.0696 3.20954,0.22451 1.12673,0.15663 2.26004,0.3794 3.39925,0.69093 1.1396,0.31153 2.24761,0.70312 3.32374,1.17651 1.07609,0.47338 2.06985,1.01987 2.98159,1.64293 v -11.16392 c -1.84882,-0.69789 -3.86802,-1.21305 -6.05853,-1.54895 -2.19002,-0.33589 -4.70332,-0.50471 -7.53941,-0.50471 -2.88628,0 -5.62106,0.30457 -8.20387,0.91545 -2.58283,0.60913 -4.85529,1.56113 -6.81786,2.85633 -1.96255,1.29485 -3.51345,2.94335 -4.65268,4.94689 -1.13961,2.00406 -1.70924,4.39988 -1.70924,7.18764 0,3.55997 1.04441,6.59678 3.13356,9.1106 2.0892,2.51417 5.26051,4.64249 9.51441,6.38497 1.67147,0.67179 3.22842,1.3314 4.67202,1.97917 1.44314,0.64743 2.69011,1.31922 3.74092,2.0159 1.05085,0.69789 1.88015,1.4567 2.48798,2.27765 0.60792,0.82146 0.91179,1.75483 0.91179,2.80063 0,0.771 -0.19022,1.48804 -0.57015,2.14678 -0.37993,0.65961 -0.956,1.23219 -1.72821,1.71776 -0.77221,0.48557 -1.73413,0.86498 -2.88628,1.13822 -1.15214,0.27324 -2.50087,0.41073 -4.04532,0.41073 -2.63347,0 -5.24162,-0.45424 -7.82445,-1.36272 -2.58237,-0.90849 -4.97548,-2.27156 -7.17841,-4.08871 z"
       fill="#ffffff"
       fill-rule="evenodd"
       id="path1"
       style="stroke-width:4.60478;filter:url(#filter6)" />
  </g>
</svg>
